<svg width="308" height="61" viewBox="0 0 308 61" fill="none" xmlns="http://www.w3.org/2000/svg">
<path d="M0 2V46.6607H13.7311V28.9423H29.2627V46.6607H43.6206V31.1542L29.2627 8.36106V17.7732H13.7311V2H0Z" fill="white"/>
<path d="M28.7969 2L46.4492 29.4051V46.6607H60.8071V29.4051L78.6928 2H63.1612L53.7448 18.6046L45.2688 2H28.7969Z" fill="white"/>
<path d="M79.0502 32.3473V31.9299H87.8801V33.1737C87.8801 37.4675 89.7055 39.197 97.7097 39.197C104.772 39.197 106.424 37.9532 106.424 34.835C106.424 31.998 105.069 30.9586 101.005 30.1237L89.9373 28.258C82.8748 26.946 78.6953 22.7885 78.6953 15.2402C78.6953 8.24574 83.5268 0.901947 96.768 0.901947C108.894 0.901947 114.551 7.47898 114.551 17.2423V17.6598H105.663V16.6885C105.663 12.2584 103.722 10.3841 95.8915 10.3841C89.5317 10.3841 87.5904 11.841 87.5904 14.8143C87.5904 17.5149 88.887 18.4861 92.1828 19.1762L103.251 21.255C112.081 22.9163 115.261 27.9683 115.261 34.3409C115.261 41.8891 110.256 48.6792 97.7169 48.6792C85.765 48.6877 79.0502 43.15 79.0502 32.3473Z" fill="white"/>
<path d="M132.344 47.207C125.455 47.207 121.275 43.3988 121.275 34.6748V21.1033H116.625V12.5157H121.275V5.80234H130.105V12.5157H139.645V21.1033H130.105V33.4992C130.105 36.9581 131.221 37.8611 134.343 37.8611H139.645V47.207H132.344Z" fill="white"/>
<path d="M141.82 38.3133C141.82 33.1846 145.058 30.0068 151.36 29.2401L164.022 27.7151V26.4031C164.022 21.9048 162.312 20.6525 157.604 20.6525C153.127 20.6525 151.302 22.0411 151.302 25.9857V26.2668H142.414V26.0623C142.414 17.4747 148.535 11.5196 158.256 11.5196C168.085 11.5196 172.743 17.4747 172.743 26.5479V46.9095H164.5V38.9438H164.029C162.674 44.3451 158.553 47.5996 152.019 47.5996C145.645 47.591 141.82 44.1321 141.82 38.3133ZM154.54 40.2473C160.545 40.2473 163.783 38.586 164.022 33.6702L153.779 35.0589C151.657 35.2634 150.715 35.962 150.715 37.6233C150.708 39.489 151.947 40.2473 154.54 40.2473Z" fill="white"/>
<path d="M179.57 47.299V21.1954H175.391V12.6077H179.751C180.693 5.61325 185.872 0.901978 194.941 0.901978H197.534V8.45023H193.529C189.646 8.45023 187.821 9.20847 188.052 12.6077H197.534V21.1954H188.407V47.299H179.57ZM202.358 47.299V21.1954H198.179V12.6077H202.532C203.474 5.61325 208.718 0.901978 217.722 0.901978H220.315V8.45023H216.309C212.427 8.45023 210.602 9.20847 210.891 12.6077H220.315V21.1954H211.246V47.299H202.358ZM223.263 9.07215V0.901978H232.093V9.07215H223.263ZM223.263 47.299V12.6077H232.093V47.299H223.263Z" fill="white"/>
<path d="M236.797 47.7178V13.0264H244.982V23.6928H245.511C246.279 17.874 249.806 12.3364 257.521 12.3364C265.59 12.3364 269.415 18.4278 269.415 26.1209V47.7263H260.585V29.5798C260.585 24.0421 258.643 21.6822 253.225 21.6822C247.633 21.6822 245.627 24.3148 245.627 30.2017V47.7178H236.797Z" fill="white"/>
<path d="M273.016 28.2678C273.016 18.5726 278.376 12.3364 287.206 12.3364C293.211 12.3364 297.506 15.3863 298.448 21.4096H298.919V13.0264H307.162V42.6657C307.162 54.7804 300.918 60.1818 290.378 60.1818C280.839 60.1818 274.834 55.1979 274.834 46.4739H283.664C283.664 50.3503 284.96 51.526 290.965 51.526C296.615 51.526 298.325 50.1373 298.325 43.3558V35.5349H297.854C296.912 40.6551 293.435 44.1907 286.844 44.1907C278.079 44.1907 273.016 38.0311 273.016 28.2678ZM289.915 35.2623C295.565 35.2623 298.332 33.3965 298.332 28.6171V27.8589C298.332 23.1476 295.507 21.35 290.031 21.35C284.381 21.35 281.903 23.1476 281.903 28.2763C281.903 33.388 284.381 35.2623 289.915 35.2623Z" fill="white"/>
</svg>
